<?xml version="1.0" standalone="no"?><!DOCTYPE svg PUBLIC "-//W3C//DTD SVG 1.1//EN" "http://www.w3.org/Graphics/SVG/1.1/DTD/svg11.dtd"><svg t="1741590476849" class="icon" viewBox="0 0 1024 1024" version="1.1" xmlns="http://www.w3.org/2000/svg" p-id="9226" xmlns:xlink="http://www.w3.org/1999/xlink" width="200" height="200"><path d="M678.4 0a102.4 102.4 0 0 1 101.952 93.056l0.448 9.344v256a38.4 38.4 0 0 1-76.288 6.208L704 358.4v-256a25.6 25.6 0 0 0-20.48-25.088L678.4 76.8h-576a25.6 25.6 0 0 0-25.088 20.48L76.8 102.4v768a25.6 25.6 0 0 0 20.48 25.088L102.4 896h384a38.4 38.4 0 0 1 6.208 76.288L486.4 972.8h-384a102.4 102.4 0 0 1-101.952-93.056L0 870.4v-768A102.4 102.4 0 0 1 93.056 0.448L102.4 0h576z m155.456 486.592a230.464 230.464 0 0 1 35.2 295.36l110.016 102.592a38.4 38.4 0 0 1-52.352 56.192l-110.08-102.528a230.464 230.464 0 1 1 17.216-351.616z m-269.44 63.744a153.6 153.6 0 1 0 224.64 209.536 153.6 153.6 0 0 0-224.64-209.536zM384 499.2A38.4 38.4 0 1 1 384 576H204.8a38.4 38.4 0 1 1 0-76.8H384z m128-166.4a38.4 38.4 0 1 1 0 76.8H204.8a38.4 38.4 0 1 1 0-76.8H512z m0-166.4a38.4 38.4 0 1 1 0 76.8H204.8a38.4 38.4 0 1 1 0-76.8H512z" fill="#2c2c2c" p-id="9227"></path></svg>