<?xml version="1.0" standalone="no"?><!DOCTYPE svg PUBLIC "-//W3C//DTD SVG 1.1//EN" "http://www.w3.org/Graphics/SVG/1.1/DTD/svg11.dtd"><svg t="1741591932149" class="icon" viewBox="0 0 1024 1024" version="1.1" xmlns="http://www.w3.org/2000/svg" p-id="11256" xmlns:xlink="http://www.w3.org/1999/xlink" width="200" height="200"><path d="M919.936 586.88l5.76 0.896a32 32 0 0 1 22.848 39.04 452.16 452.16 0 0 1-805.248 148.032l0.064 9.856a32 32 0 0 1-63.488 5.76l-0.512-5.76v-128a32 32 0 0 1 32-32l5.312 0.384a32 32 0 0 1 30.272 20.992 388.16 388.16 0 0 0 739.648-35.392 32 32 0 0 1 33.344-23.872zM511.168 60.16a452.096 452.096 0 0 1 368.64 190.208l-0.512 5.568a32 32 0 0 1 63.488-5.76l0.512 5.76v128a31.936 31.936 0 0 1-0.256 4.032l0.256-4.032a32.128 32.128 0 0 1-21.44 30.208l-0.832 0.256-1.984 0.64a31.808 31.808 0 0 1-2.752 0.512l4.736-1.152a32.064 32.064 0 0 1-9.728 1.536h-1.024a31.808 31.808 0 0 1-2.24-0.128l3.2 0.128a32.128 32.128 0 0 1-30.272-21.76l-0.192-0.448A388.16 388.16 0 0 0 151.36 366.72a32 32 0 1 1-59.328-24.064A452.096 452.096 0 0 1 511.232 60.16z" fill="#2c2c2c" p-id="11257"></path></svg>